<?xml version="1.0" standalone="no"?>
<!DOCTYPE svg PUBLIC "-//W3C//DTD SVG 20010904//EN"
 "http://www.w3.org/TR/2001/REC-SVG-20010904/DTD/svg10.dtd">
<svg version="1.0" xmlns="http://www.w3.org/2000/svg"
 width="512.000000pt" height="512.000000pt" viewBox="0 0 512.000000 512.000000"
 preserveAspectRatio="xMidYMid meet">

<g transform="translate(0.000000,512.000000) scale(0.100000,-0.100000)"
fill="#000000" stroke="none">
<path d="M883 5104 c-63 -31 -73 -63 -73 -232 l0 -150 -152 -4 c-239 -5 -251
-17 -256 -255 l-4 -153 -147 0 c-166 0 -200 -10 -233 -71 -24 -45 -23 -89 5
-130 39 -59 73 -69 235 -69 l142 0 0 -270 0 -270 -152 0 c-136 0 -157 -2 -186
-20 -59 -36 -78 -118 -42 -177 37 -61 58 -68 227 -71 l153 -4 0 -269 0 -269
-154 0 c-143 0 -155 -2 -187 -23 -22 -15 -39 -38 -49 -65 -13 -37 -13 -47 0
-84 10 -27 27 -50 49 -65 32 -21 44 -23 187 -23 l154 0 0 -269 0 -269 -153 -4
c-169 -3 -190 -10 -227 -71 -36 -59 -17 -141 42 -177 29 -18 50 -20 186 -20
l152 0 0 -270 0 -270 -142 0 c-162 0 -196 -10 -235 -69 -28 -41 -29 -85 -5
-130 33 -61 67 -71 233 -71 l147 0 4 -152 c5 -239 17 -251 256 -256 l152 -4 0
-147 c0 -166 10 -200 71 -233 45 -24 89 -23 130 5 59 39 69 73 69 235 l0 142
270 0 270 0 0 -152 c0 -136 2 -157 20 -186 36 -59 118 -78 177 -42 61 37 68
58 71 227 l4 153 269 0 269 0 0 -154 c0 -143 2 -155 23 -187 15 -22 38 -39 65
-49 37 -13 47 -13 84 0 27 10 50 27 65 49 21 32 23 44 23 187 l0 154 269 0
269 0 4 -153 c3 -169 10 -190 71 -227 59 -36 141 -17 177 42 18 29 20 50 20
186 l0 152 270 0 270 0 0 -142 c0 -162 10 -196 69 -235 41 -28 85 -29 130 -5
61 33 71 67 71 233 l0 147 153 4 c238 5 250 17 255 256 l4 152 147 0 c166 0
200 10 233 71 24 45 23 89 -5 130 -39 59 -73 69 -234 69 l-143 0 0 270 0 270
153 0 c135 0 156 2 185 20 59 36 78 118 42 177 -37 61 -58 68 -227 71 l-153 4
0 269 0 269 154 0 c143 0 155 2 187 23 22 15 39 38 49 65 13 37 13 47 0 84
-10 27 -27 50 -49 65 -32 21 -44 23 -187 23 l-154 0 0 269 0 269 153 4 c169 3
190 10 227 71 36 59 17 141 -42 177 -29 18 -50 20 -185 20 l-153 0 0 270 0
270 143 0 c161 0 195 10 234 69 28 41 29 85 5 130 -33 61 -67 71 -233 71
l-147 0 -4 153 c-3 121 -7 159 -21 184 -31 57 -64 67 -234 71 l-153 4 0 147
c0 166 -10 200 -71 233 -45 24 -89 23 -130 -5 -59 -39 -69 -73 -69 -234 l0
-143 -270 0 -270 0 0 153 c0 135 -2 156 -20 185 -36 59 -118 78 -177 42 -61
-37 -68 -58 -71 -227 l-4 -153 -269 0 -269 0 0 154 c0 143 -2 155 -23 187 -15
22 -38 39 -65 49 -37 13 -47 13 -84 0 -27 -10 -50 -27 -65 -49 -21 -32 -23
-44 -23 -187 l0 -154 -269 0 -269 0 -4 153 c-3 169 -10 190 -71 227 -59 36
-141 17 -177 -42 -18 -29 -20 -50 -20 -185 l0 -153 -270 0 -270 0 0 143 c0
161 -10 195 -69 234 -40 27 -83 29 -128 7z m3230 -947 c15 -9 35 -29 44 -44
17 -26 18 -112 18 -1553 0 -1441 -1 -1527 -18 -1553 -9 -15 -29 -35 -44 -44
-26 -17 -112 -18 -1553 -18 -1441 0 -1527 1 -1553 18 -15 9 -35 29 -44 44 -17
26 -18 113 -21 1518 -2 819 0 1509 3 1532 7 52 45 100 88 112 19 6 643 9 1542
8 1425 -2 1512 -3 1538 -20z"/>
<path d="M1210 2560 l0 -1350 1350 0 1350 0 0 1350 0 1350 -1350 0 -1350 0 0
-1350z m1080 785 c106 -37 198 -127 244 -238 21 -51 21 -65 24 -647 2 -436 0
-602 -9 -622 -16 -38 -62 -76 -104 -84 -45 -8 -102 20 -132 65 -22 33 -23 42
-23 252 l0 219 -134 0 -135 0 -3 -229 -3 -230 -29 -30 c-55 -57 -123 -65 -181
-19 -55 43 -55 40 -55 646 0 336 4 581 10 613 29 151 162 287 311 319 58 12
163 5 219 -15z m994 11 c59 -25 99 -101 81 -156 -12 -39 -65 -89 -101 -96
l-34 -6 0 -538 0 -538 34 -6 c36 -7 89 -57 101 -96 18 -55 -22 -131 -81 -156
-41 -17 -318 -19 -361 -3 -40 15 -81 57 -88 91 -16 70 30 149 95 163 l30 7 0
538 0 538 -30 7 c-17 4 -43 20 -59 36 -69 69 -44 181 49 218 40 16 324 14 364
-3z"/>
<path d="M2092 3080 c-68 -41 -72 -60 -72 -302 l0 -218 136 0 135 0 -3 229
c-3 229 -3 229 -28 256 -53 57 -112 69 -168 35z"/>
</g>
</svg>
