<?xml version="1.0" standalone="no"?>
<!DOCTYPE svg PUBLIC "-//W3C//DTD SVG 20010904//EN"
 "http://www.w3.org/TR/2001/REC-SVG-20010904/DTD/svg10.dtd">
<svg version="1.0" xmlns="http://www.w3.org/2000/svg"
 width="512.000000pt" height="512.000000pt" viewBox="0 0 512.000000 512.000000"
 preserveAspectRatio="xMidYMid meet">

<g transform="translate(0.000000,512.000000) scale(0.100000,-0.100000)"
fill="#000000" stroke="none">
<path d="M2545 5028 c-182 -34 -340 -197 -374 -382 -15 -82 -15 -1690 0 -1772
31 -171 164 -320 329 -370 l60 -18 0 -207 c0 -133 4 -217 11 -233 16 -35 61
-52 97 -37 15 7 131 115 257 241 l230 230 716 0 c470 0 736 4 775 11 190 35
348 193 383 383 15 82 15 1690 0 1772 -35 190 -193 348 -383 383 -76 14 -2028
13 -2101 -1z m2145 -179 c70 -33 126 -89 159 -159 l26 -55 0 -875 0 -875 -26
-55 c-14 -30 -44 -72 -65 -94 -22 -21 -64 -51 -94 -65 l-55 -26 -777 -5 -778
-5 -180 -180 -180 -180 0 156 c0 193 -1 194 -111 214 -95 16 -143 40 -200 102
-89 95 -84 30 -84 1018 l0 870 26 55 c43 91 123 157 216 179 22 5 481 9 1053
8 l1015 -2 55 -26z"/>
<path d="M2665 4295 c-16 -15 -25 -36 -25 -55 0 -19 9 -40 25 -55 l24 -25 911
0 911 0 24 25 c16 15 25 36 25 55 0 19 -9 40 -25 55 l-24 25 -911 0 -911 0
-24 -25z"/>
<path d="M2665 3975 c-16 -15 -25 -36 -25 -55 0 -19 9 -40 25 -55 l24 -25 911
0 911 0 24 25 c16 15 25 36 25 55 0 19 -9 40 -25 55 l-24 25 -911 0 -911 0
-24 -25z"/>
<path d="M2665 3655 c-16 -15 -25 -36 -25 -55 0 -19 9 -40 25 -55 l24 -25 911
0 911 0 24 25 c16 15 25 36 25 55 0 19 -9 40 -25 55 l-24 25 -911 0 -911 0
-24 -25z"/>
<path d="M2665 3335 c-16 -15 -25 -36 -25 -55 0 -19 9 -40 25 -55 l24 -25 591
0 591 0 24 25 c16 15 25 36 25 55 0 19 -9 40 -25 55 l-24 25 -591 0 -591 0
-24 -25z"/>
<path d="M1075 3430 c-290 -45 -536 -226 -661 -485 -74 -152 -86 -215 -91
-480 -5 -222 -6 -230 -30 -266 -75 -114 -70 -305 10 -411 43 -56 125 -98 205
-105 60 -6 60 -6 67 -42 21 -116 129 -252 243 -306 l63 -30 -3 -64 -3 -64
-261 -77 c-284 -83 -330 -104 -407 -189 -108 -121 -127 -198 -127 -523 0 -252
4 -278 47 -297 34 -16 2112 -16 2146 0 43 19 47 45 47 297 0 325 -19 402 -127
523 -77 85 -124 107 -407 190 l-261 77 -3 63 -3 64 63 30 c114 54 222 190 243
306 7 36 7 36 67 42 80 7 162 49 205 105 80 106 85 297 10 411 -24 36 -25 44
-30 266 -5 265 -17 328 -91 480 -140 290 -425 476 -751 490 -55 2 -127 0 -160
-5z m306 -175 c250 -67 444 -260 515 -514 10 -37 17 -119 21 -238 l6 -183 -42
0 -41 0 0 175 c0 173 0 176 -25 200 -32 32 -63 31 -133 -4 -100 -50 -279 -98
-528 -140 -115 -20 -498 -71 -530 -71 -8 0 -26 -11 -39 -25 -21 -20 -25 -34
-25 -80 l0 -55 -41 0 -41 0 5 183 c3 122 10 201 21 238 78 276 300 479 578
529 69 12 228 4 299 -15z m299 -1148 c0 -478 0 -477 -88 -567 -42 -42 -73 -63
-117 -79 -56 -21 -73 -22 -295 -19 -233 3 -235 3 -286 30 -69 37 -140 117
-159 181 -12 40 -15 114 -15 363 l0 313 58 6 c152 17 417 58 545 84 136 28
314 75 325 86 3 3 11 5 19 5 11 0 13 -74 13 -403z m-1120 -107 l0 -160 -36 0
c-83 0 -124 53 -124 160 0 107 40 159 123 160 l37 0 0 -160z m1380 144 c45
-27 60 -64 60 -144 0 -107 -41 -160 -124 -160 l-36 0 0 160 0 160 36 0 c20 0
48 -7 64 -16z m-580 -928 c0 -49 -5 -70 -23 -97 -71 -106 -203 -106 -274 0
-18 27 -23 48 -23 97 l0 64 160 0 160 0 0 -64z m-388 -239 c69 -69 127 -92
228 -92 103 0 157 22 225 89 25 25 50 46 57 46 18 0 460 -130 499 -146 50 -22
123 -99 151 -159 21 -46 23 -66 26 -263 l4 -212 -962 0 -962 0 4 212 c3 197 5
217 26 263 26 58 101 138 146 157 41 17 476 145 498 147 10 0 37 -18 60 -42z"/>
<path d="M923 2228 c-55 -27 -50 -114 8 -138 89 -37 151 99 63 139 -30 13 -42
13 -71 -1z"/>
<path d="M1403 2228 c-55 -27 -50 -114 8 -138 89 -37 151 99 63 139 -30 13
-42 13 -71 -1z"/>
<path d="M1083 1748 c-32 -16 -48 -61 -34 -97 17 -40 49 -51 151 -51 102 0
134 11 151 51 15 37 -2 82 -37 98 -31 14 -201 13 -231 -1z"/>
</g>
</svg>

